<?xml version="1.0" encoding="UTF-8" standalone="no"?>
<svg
   xmlns:dc="http://purl.org/dc/elements/1.1/"
   xmlns:cc="http://creativecommons.org/ns#"
   xmlns:rdf="http://www.w3.org/1999/02/22-rdf-syntax-ns#"
   xmlns:svg="http://www.w3.org/2000/svg"
   xmlns="http://www.w3.org/2000/svg"
   xmlns:sodipodi="http://sodipodi.sourceforge.net/DTD/sodipodi-0.dtd"
   xmlns:inkscape="http://www.inkscape.org/namespaces/inkscape"
   width="500"
   height="500"
   viewBox="0 0 132.29166 132.29167"
   version="1.1"
   id="svg8"
   inkscape:version="1.0.2 (1.0.2+r75+1)"
   sodipodi:docname="soon.svg">
  <defs
     id="defs2" />
  <sodipodi:namedview
     id="base"
     pagecolor="#ffffff"
     bordercolor="#666666"
     borderopacity="1.0"
     inkscape:pageopacity="0.0"
     inkscape:pageshadow="2"
     inkscape:zoom="0.65252746"
     inkscape:cx="37.080578"
     inkscape:cy="274.02653"
     inkscape:document-units="mm"
     inkscape:current-layer="layer1"
     inkscape:document-rotation="0"
     showgrid="false"
     units="px"
     inkscape:window-width="1366"
     inkscape:window-height="681"
     inkscape:window-x="0"
     inkscape:window-y="0"
     inkscape:window-maximized="1" />
  <metadata
     id="metadata5">
    <rdf:RDF>
      <cc:Work
         rdf:about="">
        <dc:format>image/svg+xml</dc:format>
        <dc:type
           rdf:resource="http://purl.org/dc/dcmitype/StillImage" />
        <dc:title></dc:title>
      </cc:Work>
    </rdf:RDF>
  </metadata>
  <g
     inkscape:label="Layer 1"
     inkscape:groupmode="layer"
     id="layer1">
    <g
       id="g4891">
      <g
         id="g4827">
        <g
           id="g3936"
           transform="matrix(2.8607511,0,0,2.8607511,73.233496,-64.95777)">
          <g
             id="g170"
             transform="matrix(0.00478389,0,0,-0.00478389,-22.406558,112.06094)">
            <path
               d="m 5906.24,16201.9 c 20.19,-183.7 12.22,-575.5 -353.5,-847.9 -0.13,-0.1 -0.13,-0.1 -0.24,-0.1 192.28,322.8 -16.34,764.1 -119.86,946.1 l 473.6,-98.1"
               style="fill:#bbe1f4;fill-opacity:1;fill-rule:nonzero;stroke:none"
               id="path172" />
          </g>
          <g
             id="g174"
             transform="matrix(0.00540701,0,0,-0.00540701,-22.406558,112.06094)">
            <path
               d="m 6616.18,15177.1 c -818.65,-1142.1 -2678.01,-424.3 -3337.67,-119.7 -83.45,163.2 -113.74,354.8 -73.72,548.1 46.76,225.7 180.51,410.9 358.99,528.1 178.47,117.3 401.57,166.4 627.35,119.6 l 1766.57,-365.9 c 357.81,-74.2 614.19,-367.1 658.48,-710.2"
               style="fill:#bbe1f4;fill-opacity:1;fill-rule:nonzero;stroke:none"
               id="path176" />
          </g>
          <g
             id="g178"
             transform="matrix(0.0050345,0,0,-0.0050345,-22.406558,112.06094)">
            <path
               d="m 7094.19,16003.4 c -50.22,-242.2 -193.87,-441.2 -385.55,-567.1 -191.68,-125.9 -431.4,-178.7 -673.76,-128.5 l -1.84,0.4 -184.21,38.2 v -0.1 c -39.42,-444.6 -556.32,-747.3 -572.52,-756.6 347.52,258.8 355.1,631.1 335.91,805.7 l -450.02,93.2 -1024.6,212.3 c -276.95,57.4 -497.36,236.9 -616.53,470.5 708.47,-327.2 2705.38,-1098 3584.6,128.6 12.42,-96.3 9.31,-196.2 -11.48,-296.6"
               style="fill:#b1d3f0;fill-opacity:1;fill-rule:nonzero;stroke:none"
               id="path180" />
          </g>
          <g
             id="g186"
             transform="matrix(0.00537969,0,0,-0.00537969,-22.406558,112.06094)">
            <path
               d="m 5079.2,15660.5 c -29.81,-279.6 -414.69,-467.7 -859.66,-420.3 -444.96,47.5 -781.5,312.6 -751.7,592.1 29.83,279.5 414.7,467.7 859.66,420.2 444.97,-47.4 781.52,-312.5 751.7,-592"
               style="fill:#caeff9;fill-opacity:1;fill-rule:nonzero;stroke:none"
               id="path188" />
          </g>
        </g>
        <g
           id="g4808">
          <g
             id="g4722"
             transform="translate(-89.0685,-45.021864)">
            <path
               d="m 164.15161,63.179108 q -0.3004,1.334011 -1.51192,1.830305 -1.20469,0.497832 -3.09967,0.0711 -3.52316,-0.793384 -3.53262,-3.36882 l 1.32261,0.03188 q 0.0233,0.918115 0.6423,1.488798 0.62058,0.563841 1.84513,0.839599 1.26561,0.285003 2.04677,0.0081 0.78955,-0.282235 0.97904,-1.123688 0.10629,-0.472035 -0.0464,-0.8155 -0.14583,-0.341924 -0.49264,-0.621286 -0.34681,-0.279362 -0.85798,-0.531047 -0.51118,-0.251683 -1.13403,-0.55008 -1.08546,-0.510393 -1.62363,-0.897541 -0.53133,-0.385606 -0.80406,-0.770483 -0.27119,-0.391717 -0.36193,-0.85062 -0.0839,-0.457359 0.0378,-0.997806 0.27884,-1.238237 1.37388,-1.696067 1.10189,-0.456289 2.86689,-0.05883 1.64186,0.369733 2.39668,1.071624 0.75636,0.695048 0.83257,1.984488 l -1.33696,-0.06387 q -0.0395,-0.813958 -0.55768,-1.290041 -0.5166,-0.482924 -1.57013,-0.720169 -1.15615,-0.260354 -1.85127,-0.01436 -0.69513,0.245993 -0.86613,1.005354 -0.10013,0.44467 0.0662,0.791215 0.17473,0.341244 0.57319,0.646614 0.39999,0.298526 1.66092,0.89156 0.42156,0.202753 0.83474,0.410806 0.42157,0.202753 0.7913,0.444148 0.37127,0.234555 0.67548,0.511515 0.31107,0.278501 0.50633,0.624367 0.19525,0.345867 0.25111,0.76816 0.0627,0.423834 -0.0559,0.950598 z"
               style="font-style:normal;font-variant:normal;font-weight:normal;font-stretch:normal;font-size:14.3614px;line-height:0;font-family:Arial;-inkscape-font-specification:Arial;font-variant-ligatures:normal;font-variant-caps:normal;font-variant-numeric:normal;font-feature-settings:normal;text-align:center;letter-spacing:0px;word-spacing:0px;writing-mode:lr-tb;text-anchor:middle;fill:#294f81;fill-opacity:1;stroke:none;stroke-width:0.168784;stroke-miterlimit:4;stroke-dasharray:none;paint-order:stroke fill markers"
               id="path4705" />
            <path
               d="m 172.24773,63.902514 q -0.43752,1.942869 -1.50679,2.701211 -1.06927,0.758343 -2.69745,0.391692 -1.62134,-0.365111 -2.22727,-1.536634 -0.60439,-1.178364 -0.18382,-3.045981 0.86271,-3.83101 4.18064,-3.083841 1.69658,0.382055 2.28593,1.499529 0.5909,1.110632 0.14876,3.074024 z m -1.29296,-0.291163 q 0.34508,-1.532404 0.0423,-2.32657 -0.29437,-0.799468 -1.36843,-1.041335 -1.08089,-0.243407 -1.72682,0.358686 -0.63756,0.596794 -0.97648,2.101833 -0.32968,1.463993 -0.024,2.30913 0.31404,0.839835 1.33336,1.069378 1.10826,0.249569 1.74051,-0.355607 0.63909,-0.603635 0.97956,-2.115515 z"
               style="font-style:normal;font-variant:normal;font-weight:normal;font-stretch:normal;font-size:14.3614px;line-height:0;font-family:Arial;-inkscape-font-specification:Arial;font-variant-ligatures:normal;font-variant-caps:normal;font-variant-numeric:normal;font-feature-settings:normal;text-align:center;letter-spacing:0px;word-spacing:0px;writing-mode:lr-tb;text-anchor:middle;fill:#294f81;fill-opacity:1;stroke:none;stroke-width:0.168784;stroke-miterlimit:4;stroke-dasharray:none;paint-order:stroke fill markers"
               id="path4707" />
            <path
               d="m 180.04657,65.658743 q -0.43752,1.942868 -1.50679,2.701211 -1.06927,0.758342 -2.69745,0.391692 -1.62134,-0.365111 -2.22727,-1.536634 -0.60439,-1.178365 -0.18382,-3.045982 0.86271,-3.831009 4.18063,-3.083843 1.69659,0.382058 2.28595,1.499531 0.59089,1.110633 0.14875,3.074025 z m -1.29296,-0.291164 q 0.34508,-1.532403 0.0423,-2.326569 -0.29437,-0.799468 -1.36843,-1.041335 -1.08089,-0.243407 -1.72682,0.358686 -0.63756,0.596794 -0.97648,2.101833 -0.32968,1.463992 -0.024,2.309129 0.31404,0.839836 1.33337,1.069378 1.10824,0.249568 1.7405,-0.355607 0.6391,-0.603634 0.97956,-2.115515 z"
               style="font-style:normal;font-variant:normal;font-weight:normal;font-stretch:normal;font-size:14.3614px;line-height:0;font-family:Arial;-inkscape-font-specification:Arial;font-variant-ligatures:normal;font-variant-caps:normal;font-variant-numeric:normal;font-feature-settings:normal;text-align:center;letter-spacing:0px;word-spacing:0px;writing-mode:lr-tb;text-anchor:middle;fill:#294f81;fill-opacity:1;stroke:none;stroke-width:0.168784;stroke-miterlimit:4;stroke-dasharray:none;paint-order:stroke fill markers"
               id="path4709" />
            <path
               d="m 185.45066,70.771595 1.05682,-4.692987 q 0.16484,-0.731996 0.11207,-1.167971 -0.0528,-0.435976 -0.32741,-0.68471 -0.27463,-0.248733 -0.88348,-0.385841 -0.88935,-0.200274 -1.53954,0.293042 -0.65019,0.493316 -0.8936,1.574207 l -0.96593,4.289362 -1.23139,-0.277298 1.31101,-5.821766 q 0.29116,-1.292966 0.31479,-1.589541 l 1.16298,0.261892 q -8.7e-4,0.03574 -0.0279,0.187786 -0.0271,0.152041 -0.0649,0.35197 -0.0295,0.194627 -0.13742,0.738171 l 0.0205,0.0046 q 0.59669,-0.670688 1.22167,-0.860594 0.63338,-0.195205 1.46115,-0.0088 1.21772,0.274219 1.64158,1.009402 0.43225,0.729881 0.11797,2.125463 l -1.11073,4.932424 z"
               style="font-style:normal;font-variant:normal;font-weight:normal;font-stretch:normal;font-size:14.3614px;line-height:0;font-family:Arial;-inkscape-font-specification:Arial;font-variant-ligatures:normal;font-variant-caps:normal;font-variant-numeric:normal;font-feature-settings:normal;text-align:center;letter-spacing:0px;word-spacing:0px;writing-mode:lr-tb;text-anchor:middle;fill:#294f81;fill-opacity:1;stroke:none;stroke-width:0.168784;stroke-miterlimit:4;stroke-dasharray:none;paint-order:stroke fill markers"
               id="path4711" />
          </g>
          <g
             id="g210"
             transform="matrix(0.01458517,0,0,-0.01458517,9.1339106,255.62069)">
            <path
               d="m 6439.32,16283.5 -107.58,-465 -61.18,13 90.79,468.5 z m -177.58,-650 c -13.9,2.9 -24.74,10.3 -32.51,22 -7.77,11.8 -10.17,24.6 -7.23,38.5 2.94,13.9 10.36,24.7 22.27,32.4 11.9,7.8 24.8,10.2 38.7,7.2 13.6,-2.9 24.34,-10.3 32.23,-22.2 7.89,-11.9 10.36,-24.9 7.41,-38.7 -2.94,-13.9 -10.43,-24.7 -22.45,-32.2 -12.01,-7.6 -24.82,-9.9 -38.42,-7"
               style="fill:#294f81;fill-opacity:1;fill-rule:nonzero;stroke:none"
               id="path212" />
          </g>
        </g>
      </g>
      <g
         id="g4069"
         transform="matrix(2.8607511,0,0,2.8607511,73.233496,-64.95777)">
        <path
           d="m -12.00238,52.244584 c -0.205378,0.906824 -1.26239,0.759895 -2.683324,0.10836 -1.696885,-0.778261 -4.106564,-3.49919 -3.606126,-5.670515 0,-4.59e-4 0,-4.59e-4 0,-4.59e-4 0.04572,-0.197894 0.115145,-0.390738 0.211765,-0.577612 1.157101,-2.236984 5.789568,3.989104 6.016939,5.010256 0.107625,0.483945 0.123236,0.855398 0.06075,1.12997"
           style="fill:#5fbbe8;fill-opacity:1;fill-rule:nonzero;stroke:none;stroke-width:0.00459151"
           id="path94" />
        <path
           d="m -12.00238,52.244584 c -0.205378,0.906824 -1.26239,0.759895 -2.683324,0.10836 -1.696885,-0.778261 -4.106564,-3.49919 -3.606126,-5.670515 0.748094,1.868745 2.514402,4.86746 6.28945,5.562155"
           style="fill:#5faede;fill-opacity:1;fill-rule:nonzero;stroke:none;stroke-width:0.00459151"
           id="path96" />
        <path
           d="m -15.825868,46.987305 c 0.401665,0.437112 0.997368,1.22226 0.857143,1.371484 -0.143255,0.152439 -1.057884,-0.354923 -1.679942,-1.096911 -0.424714,-0.506903 -0.791117,-1.21675 -0.651443,-1.337507 0.158086,-0.136368 0.950488,0.493128 1.474242,1.062934"
           style="fill:#b1eced;fill-opacity:1;fill-rule:nonzero;stroke:none;stroke-width:0.00459151"
           id="path98" />
        <path
           d="m 3.3379008,54.622987 c 0,3.780649 -2.65205615,8.220639 -6.865639,8.220639 -2.611008,0 -4.7597429,-1.598305 -6.0157964,-3.735653 -0.7723834,-1.311794 -1.2080264,-2.827451 -1.2080264,-4.300408 0,-3.872479 4.2268983,-3.687901 6.9055853,-3.687901 2.93792357,0 6.425405,-0.225443 7.0757005,2.510638 0.071168,0.295234 0.108176,0.624905 0.108176,0.992685"
           style="fill:#5fbbe8;fill-opacity:1;fill-rule:nonzero;stroke:none;stroke-width:0.00459151"
           id="path100" />
        <path
           d="m 3.3379008,54.622987 c 0,3.780649 -2.65205615,8.220639 -6.865639,8.220639 -2.611008,0 -4.7597429,-1.598305 -6.0157964,-3.735653 2.6167934,1.231903 10.07083441,3.783405 12.7732594,-5.477671 0.071168,0.295234 0.108176,0.624905 0.108176,0.992685"
           style="fill:#5faede;fill-opacity:1;fill-rule:nonzero;stroke:none;stroke-width:0.00459151"
           id="path102" />
        <path
           d="m -9.2925167,53.306141 c -0.5473539,0.89259 -0.1601978,2.162602 0.7796384,2.66124 0.9934191,0.527105 2.344976,0.05464 2.714317,-0.993144 0.3508832,-0.99498 -0.3252625,-2.110717 -1.2940252,-2.423399 -0.7768835,-0.250696 -1.7448657,0.01331 -2.1999302,0.755303"
           style="fill:#b1eced;fill-opacity:1;fill-rule:nonzero;stroke:none;stroke-width:0.00459151"
           id="path104" />
        <path
           d="m 9.1679706,57.365955 c -0.042242,1.737427 -0.447213,2.798066 -1.600233,2.246166 C 7.3698435,59.517077 7.1494051,59.37474 6.9052745,59.180519 6.0872052,58.528066 2.523321,51.634373 5.0417643,51.575142 c 0.6508465,-0.01469 1.2438859,0.228657 1.7651601,0.633169 1.4955466,1.161193 2.3980997,3.647955 2.3610462,5.157644"
           style="fill:#5fbbe8;fill-opacity:1;fill-rule:nonzero;stroke:none;stroke-width:0.00459151"
           id="path106" />
        <path
           d="m 9.1679706,57.365955 c -0.042242,1.737427 -0.447213,2.798066 -1.600233,2.246166 0.373152,-0.918761 0.7040621,-3.038202 -0.7608132,-7.40381 1.4955466,1.161193 2.3980997,3.647955 2.3610462,5.157644"
           style="fill:#5faede;fill-opacity:1;fill-rule:nonzero;stroke:none;stroke-width:0.00459151"
           id="path108" />
        <path
           d="m 5.7734214,54.872765 c 0.4657168,1.079923 1.1593563,2.959228 0.959947,3.051517 -0.1798495,0.08311 -1.110824,-1.275521 -1.6113445,-2.845818 -0.2788424,-0.874682 -0.4531821,-1.905936 -0.3085954,-1.954146 0.1798494,-0.06015 0.8150848,1.412807 0.9599929,1.748447"
           style="fill:#b1eced;fill-opacity:1;fill-rule:nonzero;stroke:none;stroke-width:0.00459151"
           id="path110" />
        <path
           d="m -11.058182,43.160282 c -0.248768,-0.24886 -0.442025,-0.536289 -0.575637,-0.844838 -0.308366,-0.707552 -0.307218,-1.523463 0.03701,-2.226882 0.34946,-0.713062 1.008984,-1.220883 1.7767308,-1.403166 0.2169488,-0.05234 0.4431725,-0.07806 0.6734368,-0.07484 0.5247636,2.997337 -1.9115376,4.549727 -1.9115376,4.549727"
           style="fill:#5fbbe8;fill-opacity:1;fill-rule:nonzero;stroke:none;stroke-width:0.00459151"
           id="path112" />
        <path
           d="m -11.058182,43.160282 c -0.248768,-0.24886 -0.442025,-0.536289 -0.575637,-0.844838 0.305932,-0.533993 0.613242,-1.102422 0.916373,-1.704828 0.333987,-0.664391 0.6317,-1.308121 0.8973648,-1.92522 0.2169488,-0.05234 0.4431725,-0.07806 0.6734368,-0.07484 -0.6371639,1.516575 -1.2743736,3.033151 -1.9115376,4.549727"
           style="fill:#5faede;fill-opacity:1;fill-rule:nonzero;stroke:none;stroke-width:0.00459151"
           id="path114" />
        <g
           id="g116"
           transform="matrix(0.00468531,0,0,-0.00468531,-22.406558,112.06094)">
          <path
             d="m 5582.79,14060.9 c -57.67,-799.4 -1890.51,-1063.6 -2747.87,-580.4 -238.19,134.3 -401.06,326.3 -429.71,580.4 -131.75,1168.9 642.11,2239.1 1531.19,2239.1 322.29,0 700.76,-123.3 1014.16,-396.6 401.69,-349.8 697.06,-945.5 632.23,-1842.5"
             style="fill:#5fbbe8;fill-opacity:1;fill-rule:nonzero;stroke:none"
             id="path118" />
        </g>
        <g
           id="g120"
           transform="matrix(0.0047467,0,0,-0.0047467,-22.406558,112.06094)">
          <path
             d="m 2339.44,15066.9 c -6.44,3.5 -159.15,86.8 -278.9,281.9 -109.59,178.5 -211.05,488.3 -72.2,951.2 l 81.72,-24.5 c -103.6,-345.4 -83.13,-640.8 60.84,-878.2 107.39,-177.1 247.53,-254.5 248.93,-255.2 l -40.39,-75.2"
             style="fill:#5fbbe8;fill-opacity:1;fill-rule:nonzero;stroke:none"
             id="path122" />
        </g>
        <g
           id="g124"
           transform="matrix(0.0048294,0,0,-0.0048294,-22.406558,112.06094)">
          <path
             d="m 2221.64,16104.8 c 0,-107.9 -87.4,-195.3 -195.23,-195.3 -107.82,0 -195.22,87.4 -195.22,195.3 0,107.8 87.4,195.2 195.22,195.2 107.83,0 195.23,-87.4 195.23,-195.2"
             style="fill:#294f81;fill-opacity:1;fill-rule:nonzero;stroke:none"
             id="path126" />
        </g>
        <path
           d="m 1.5218668,42.873312 c 0,0.751631 -0.82504844,1.214455 -1.88839624,1.489027 -1.12009886,0.290184 -2.50457686,0.371453 -3.46842666,0.36227 -1.3798406,-0.01331 -4.0412175,-0.252533 -5.0009809,-1.126756 -0.2250758,-0.204782 -0.3564389,-0.444918 -0.3564389,-0.724541 0,-0.814074 0.3390371,-1.551012 0.887493,-2.085004 0.5485018,-0.533534 1.3064223,-0.863204 2.1435923,-0.863204 h 4.652118 c 0.97312461,0 1.83922114,0.445835 2.39346231,1.139153 0.39978279,0.500016 0.63757709,1.127675 0.63757709,1.809055"
           style="fill:#294f81;fill-opacity:1;fill-rule:nonzero;stroke:none;stroke-width:0.00459151"
           id="path128" />
        <path
           d="m 1.5218668,42.873312 c 0,0.751631 -0.82504844,1.214455 -1.88839624,1.489027 -1.12009886,0.290184 -2.50457686,0.371453 -3.46842666,0.36227 -1.3798406,-0.01331 -4.0412175,-0.252533 -5.0009809,-1.126756 2.7330505,-0.08219 7.3788321,-0.530779 9.72022671,-2.533596 0.39978279,0.500016 0.63757709,1.127675 0.63757709,1.809055"
           style="fill:#33487a;fill-opacity:1;fill-rule:nonzero;stroke:none;stroke-width:0.00459151"
           id="path130" />
        <path
           d="m -3.7070825,48.103961 c -0.8829015,0 -1.5696077,-0.313141 -2.0671897,-0.716735 -0.8932782,-0.723622 -1.177355,-1.740182 -0.8909825,-1.762681 0.4455142,-0.03444 1.508311,0.497261 2.7082104,0.497261 1.3786927,0 2.3182534,-0.347118 3.02699883,-0.376045 0.0318192,-0.0018 0.0624445,-0.0023 0.0931158,-0.0023 0.71971919,0 -0.16139158,2.360496 -2.87015283,2.360496"
           style="fill:#294f81;fill-opacity:1;fill-rule:nonzero;stroke:none;stroke-width:0.00459151"
           id="path132" />
        <path
           d="m 3.750448,46.181495 c -0.2702104,3.745754 -8.8576197,4.983166 -12.8745481,2.719093 2.454208,0.407267 9.7602187,1.301693 11.0746303,-2.218159 C 3.0810518,43.655706 1.6832584,39.616554 0.78823532,37.548997 2.6702953,39.188166 4.0541764,41.978886 3.750448,46.181495"
           style="fill:#5faede;fill-opacity:1;fill-rule:nonzero;stroke:none;stroke-width:0.00459151"
           id="path134" />
        <g
           id="g136"
           transform="matrix(0.00465579,0,0,-0.00465579,-22.406558,112.06094)">
          <path
             d="m 2930.4,15611.7 c 47.67,-62.9 340.75,68.7 537.56,213.5 188.64,138.9 381.22,357.8 338.74,419.8 -37.73,55 -254.16,-23.4 -390.29,-95.8 -304.64,-161.8 -537.95,-469 -486.01,-537.5"
             style="fill:#b1eced;fill-opacity:1;fill-rule:nonzero;stroke:none"
             id="path138" />
        </g>
        <path
           d="m -10.751561,45.204422 c 0.03251,1.000949 0.643868,1.950473 0.8912122,1.885733 0.259604,-0.06795 0.1539534,-1.263124 0.034299,-1.91971 -0.034345,-0.188711 -0.2444982,-1.342099 -0.5142952,-1.337048 -0.212128,0.0037 -0.432245,0.723163 -0.411216,1.371025"
           style="fill:#b1eced;fill-opacity:1;fill-rule:nonzero;stroke:none;stroke-width:0.00459151"
           id="path140" />
        <path
           d="m 0.57073549,42.239684 c 0,0.747957 -0.60626298,1.354036 -1.35408221,1.354036 -0.57811698,0 -1.07142888,-0.361352 -1.26574158,-0.871009 -0.057256,-0.150142 -0.0888,-0.312682 -0.0888,-0.483027 0,-0.747957 0.6062171,-1.354036 1.35454138,-1.354036 0.55052205,0 1.02404447,0.328293 1.2351621,0.799841 0.0764487,0.169426 0.11892011,0.35676 0.11892011,0.554195"
           style="fill:#393760;fill-opacity:1;fill-rule:nonzero;stroke:none;stroke-width:0.00459151"
           id="path142" />
        <path
           d="m -0.78334672,40.654236 c -0.87449898,0 -1.58599938,0.711225 -1.58599938,1.585448 0,0.194221 0.034987,0.384769 0.1039977,0.565674 0.2326977,0.609753 0.8283084,1.019774 1.48200168,1.019774 0.8742235,0 1.58549432,-0.711224 1.58549432,-1.585448 0,-0.225902 -0.0469252,-0.444458 -0.13944416,-0.649239 -0.25446149,-0.568429 -0.82224761,-0.936209 -1.44605016,-0.936209 z m -2.2958e-4,0.231412 c 0.55047614,0 1.02427405,0.328293 1.23539168,0.799841 0.0764487,0.169426 0.11892011,0.35676 0.11892011,0.554195 0,0.747957 -0.60626298,1.354036 -1.35408221,1.354036 -0.57811698,0 -1.07142888,-0.361352 -1.26578748,-0.871009 -0.05721,-0.150142 -0.088754,-0.312682 -0.088754,-0.483027 0,-0.747957 0.6059875,-1.354036 1.3543118,-1.354036 v 0"
           style="fill:#46aed2;fill-opacity:1;fill-rule:nonzero;stroke:none;stroke-width:0.00459151"
           id="path144" />
        <path
           d="m 0.45062159,41.683193 c -0.50547933,1.221801 -1.75932889,1.185528 -2.49677129,1.043191 -0.057715,-0.149683 -0.089856,-0.312223 -0.090407,-0.482568 -0.00248,-0.747497 0.6017173,-1.355873 1.35004164,-1.358627 0.55047613,-0.0014 1.02445771,0.326915 1.23713645,0.798004"
           style="fill:#2f4572;fill-opacity:1;fill-rule:nonzero;stroke:none;stroke-width:0.00459151"
           id="path146" />
        <path
           d="m -0.84262312,41.790175 c 0,0.248401 -0.20124588,0.449509 -0.44955478,0.449509 -0.248217,0 -0.4495088,-0.201108 -0.4495088,-0.449509 0,-0.2484 0.2012918,-0.449509 0.4495088,-0.449509 0.2483089,0 0.44955478,0.201109 0.44955478,0.449509"
           style="fill:#b1eced;fill-opacity:1;fill-rule:nonzero;stroke:none;stroke-width:0.00459151"
           id="path148" />
        <path
           d="m 0.27839405,42.502778 c 0.0736019,0.04913 -0.0265848,0.521136 -0.36171916,0.701582 -0.29780534,0.160244 -0.6923997,0.0427 -0.70158272,-0.04408 -0.00675,-0.06382 0.19775633,-0.08127 0.53982383,-0.288347 0.3600203,-0.218097 0.47228271,-0.403594 0.52347805,-0.369157"
           style="fill:#b1eced;fill-opacity:1;fill-rule:nonzero;stroke:none;stroke-width:0.00459151"
           id="path150" />
        <path
           d="m -5.4364748,42.239684 c 0,0.747498 -0.6062171,1.354036 -1.3540822,1.354036 -0.578117,0 -1.0713829,-0.361811 -1.2657416,-0.871009 -0.05721,-0.150142 -0.0888,-0.313141 -0.0888,-0.483027 0,-0.747957 0.606263,-1.354036 1.3545414,-1.354036 0.550522,0 1.0240904,0.328293 1.235208,0.799841 0.076449,0.169426 0.1188742,0.35676 0.1188742,0.554195"
           style="fill:#393760;fill-opacity:1;fill-rule:nonzero;stroke:none;stroke-width:0.00459151"
           id="path152" />
        <path
           d="m -6.790557,40.654236 c -0.874499,0 -1.5859535,0.711225 -1.5859535,1.585448 0,0.194221 0.034987,0.384309 0.1039977,0.565215 0.2326978,0.610212 0.8282625,1.020233 1.4819558,1.020233 0.8742694,0 1.5855402,-0.711224 1.5855402,-1.585448 0,-0.226361 -0.046925,-0.444458 -0.1394441,-0.649239 -0.2544615,-0.568429 -0.8222476,-0.936209 -1.4460961,-0.936209 z m -2.296e-4,0.231412 c 0.5505221,0 1.02432,0.328293 1.2354376,0.799841 0.076449,0.169426 0.1188742,0.35676 0.1188742,0.554195 0,0.747498 -0.6062171,1.354036 -1.3540822,1.354036 -0.578117,0 -1.0713829,-0.361811 -1.2657416,-0.871009 -0.05721,-0.150142 -0.0888,-0.313141 -0.0888,-0.483027 0,-0.747957 0.6060334,-1.354036 1.3543118,-1.354036 v 0"
           style="fill:#46aed2;fill-opacity:1;fill-rule:nonzero;stroke:none;stroke-width:0.00459151"
           id="path154" />
        <path
           d="m -5.5565428,41.682734 c -0.5054793,1.22226 -1.7593748,1.185987 -2.4967713,1.04365 -0.057761,-0.149683 -0.089856,-0.312223 -0.090453,-0.482568 -0.00248,-0.747957 0.6017633,-1.355873 1.3500417,-1.358627 0.550522,-0.0018 1.0245036,0.326915 1.2371823,0.797545"
           style="fill:#2f4572;fill-opacity:1;fill-rule:nonzero;stroke:none;stroke-width:0.00459151"
           id="path156" />
        <path
           d="m -6.8498334,41.790175 c 0,0.248401 -0.2012459,0.449509 -0.4495088,0.449509 -0.248263,0 -0.4495089,-0.201108 -0.4495089,-0.449509 0,-0.2484 0.2012459,-0.449509 0.4495089,-0.449509 0.2482629,0 0.4495088,0.201109 0.4495088,0.449509"
           style="fill:#b1eced;fill-opacity:1;fill-rule:nonzero;stroke:none;stroke-width:0.00459151"
           id="path158" />
        <path
           d="m -5.7287703,42.502318 c 0.073556,0.04959 -0.026631,0.521137 -0.3617192,0.701583 -0.2978512,0.160703 -0.6923997,0.04316 -0.7015827,-0.04362 -0.00675,-0.06382 0.1977104,-0.08127 0.5397779,-0.288347 0.3600203,-0.218097 0.4723287,-0.404053 0.523524,-0.369617"
           style="fill:#b1eced;fill-opacity:1;fill-rule:nonzero;stroke:none;stroke-width:0.00459151"
           id="path160" />
        <path
           d="m -3.4320052,40.233194 c 0.013132,0.08999 -0.5953811,0.302122 -1.2256577,0.359975 -1.0224833,0.09458 -1.9594269,-0.229576 -1.9456523,-0.342527 0.00634,-0.05234 0.6528668,-0.05831 1.9456523,-0.06887 1.0387373,-0.0083 1.2187705,0.0041 1.2256577,0.05142"
           style="fill:#296abd;fill-opacity:1;fill-rule:nonzero;stroke:none;stroke-width:0.00459151"
           id="path162" />
        <g
           id="g164"
           transform="matrix(0.00482063,0,0,-0.00482063,-22.406558,112.06094)">
          <path
             d="m 1899.17,16167.6 c 10.37,-57 65.01,-94.8 122.03,-84.5 57.03,10.4 94.86,65 84.49,122.1 -10.38,57 -65.01,94.8 -122.03,84.4 -57.03,-10.3 -94.85,-65 -84.49,-122"
             style="fill:#296abd;fill-opacity:1;fill-rule:nonzero;stroke:none"
             id="path166" />
        </g>
        <path
           d="m -3.7070825,48.103961 c -0.8829015,0 -1.5696077,-0.313141 -2.0671897,-0.716735 1.1987515,-0.157948 3.5546093,-0.589091 4.84422673,-1.641465 0.0318192,-0.0018 0.0624445,-0.0023 0.0931158,-0.0023 0.71971919,0 -0.16139158,2.360496 -2.87015283,2.360496"
           style="fill:#33487a;fill-opacity:1;fill-rule:nonzero;stroke:none;stroke-width:0.00459151"
           id="path168" />
        <g
           id="g182"
           transform="matrix(0.00474,0,0,-0.00474,-22.406558,112.06094)">
          <path
             d="m 6407.92,16259.4 -195.66,40.5 v 0.1 l 195.66,-40.6"
             style="fill:#bbdaf4;fill-opacity:1;fill-rule:nonzero;stroke:none"
             id="path184" />
        </g>
        <g
           id="g214"
           transform="matrix(0.00474,0,0,-0.00474,-22.406558,112.06094)">
          <path
             d="m 6407.92,16259.4 -195.66,40.5 v 0.1 l 195.66,-40.6"
             style="fill:#bbe1f4;fill-opacity:1;fill-rule:nonzero;stroke:none"
             id="path216" />
        </g>
        <path
           d="m 3.6351552,65.673833 c 0,1.048242 -3.27719028,1.89813 -7.3197853,1.89813 -4.042549,0 -7.3197389,-0.849888 -7.3197389,-1.89813 0,-1.048242 3.2771899,-1.897671 7.3197389,-1.897671 4.04259502,0 7.3197853,0.849429 7.3197853,1.897671"
           style="fill:#c9eaff;fill-opacity:1;fill-rule:nonzero;stroke:none;stroke-width:0.00459151"
           id="path218" />
      </g>
    </g>
  </g>
</svg>
